<svg width="123" height="23" viewBox="0 0 123 23" fill="none" xmlns="http://www.w3.org/2000/svg">
<path d="M12.312 14.208H3.984L2.736 17.4C2.688 17.528 2.6 17.664 2.472 17.808C2.344 17.936 2.12 18 1.8 18H0.912C0.768 18 0.64 17.952 0.528 17.856C0.432 17.744 0.384 17.616 0.384 17.472C0.384 17.392 0.416 17.28 0.48 17.136L6.36 1.992C6.44 1.816 6.56 1.64 6.72 1.464C6.88 1.288 7.12 1.2 7.44 1.2H8.88C9.2 1.2 9.44 1.288 9.6 1.464C9.76 1.64 9.88 1.816 9.96 1.992L15.816 17.136C15.88 17.28 15.912 17.392 15.912 17.472C15.912 17.616 15.856 17.744 15.744 17.856C15.648 17.952 15.528 18 15.384 18H14.496C14.176 18 13.952 17.936 13.824 17.808C13.696 17.664 13.608 17.528 13.56 17.4L12.312 14.208ZM4.824 12.048H11.472L8.16 3.48L4.824 12.048ZM28.6005 5.52C28.7765 5.52 28.9285 5.584 29.0565 5.712C29.1845 5.84 29.2485 5.992 29.2485 6.168V17.352C29.2485 17.528 29.1845 17.68 29.0565 17.808C28.9285 17.936 28.7765 18 28.6005 18H27.7125C27.5365 18 27.3845 17.936 27.2565 17.808C27.1285 17.68 27.0645 17.528 27.0645 17.352V12.672H20.2965V17.352C20.2965 17.528 20.2325 17.68 20.1045 17.808C19.9765 17.936 19.8245 18 19.6485 18H18.7605C18.5845 18 18.4325 17.944 18.3045 17.832C18.1765 17.704 18.1125 17.544 18.1125 17.352V6.168C18.1125 5.992 18.1765 5.84 18.3045 5.712C18.4325 5.584 18.5845 5.52 18.7605 5.52H19.6485C19.8245 5.52 19.9765 5.584 20.1045 5.712C20.2325 5.84 20.2965 5.992 20.2965 6.168V10.608H27.0645V6.168C27.0645 5.992 27.1285 5.84 27.2565 5.712C27.3845 5.584 27.5365 5.52 27.7125 5.52H28.6005ZM42.5507 5.52C42.7267 5.52 42.8787 5.584 43.0067 5.712C43.1347 5.84 43.1987 5.992 43.1987 6.168V6.936C43.1987 7.112 43.1347 7.264 43.0067 7.392C42.8787 7.52 42.7267 7.584 42.5507 7.584H38.3987V17.352C38.3987 17.528 38.3347 17.68 38.2067 17.808C38.0787 17.936 37.9267 18 37.7507 18H36.8627C36.6867 18 36.5347 17.936 36.4067 17.808C36.2787 17.68 36.2147 17.528 36.2147 17.352V7.584H32.0627C31.8867 7.584 31.7347 7.52 31.6067 7.392C31.4787 7.264 31.4147 7.112 31.4147 6.936V6.168C31.4147 5.992 31.4787 5.84 31.6067 5.712C31.7347 5.584 31.8867 5.52 32.0627 5.52H42.5507ZM54.9703 18C54.7943 18 54.6423 17.936 54.5143 17.808C54.3863 17.68 54.3223 17.528 54.3223 17.352V9.312L47.3383 17.736C47.2103 17.912 47.0343 18 46.8103 18H45.9943C45.8183 18 45.6663 17.936 45.5383 17.808C45.4263 17.68 45.3703 17.528 45.3703 17.352V6.168C45.3703 5.992 45.4343 5.84 45.5623 5.712C45.6903 5.584 45.8423 5.52 46.0183 5.52H46.9063C47.0823 5.52 47.2343 5.584 47.3623 5.712C47.4903 5.84 47.5543 5.992 47.5543 6.168V14.28L54.5383 5.784C54.6183 5.704 54.6903 5.64 54.7543 5.592C54.8343 5.544 54.9383 5.52 55.0663 5.52H55.8583C56.0343 5.52 56.1863 5.584 56.3143 5.712C56.4423 5.84 56.5063 5.992 56.5063 6.168V17.352C56.5063 17.528 56.4423 17.68 56.3143 17.808C56.1863 17.936 56.0343 18 55.8583 18H54.9703ZM68.3445 13.128C67.9605 13.848 67.5605 14.504 67.1445 15.096C66.7285 15.688 66.2725 16.2 65.7765 16.632C65.2805 17.064 64.7205 17.4 64.0965 17.64C63.4885 17.88 62.8005 18 62.0325 18H60.2805C60.1045 18 59.9525 17.936 59.8245 17.808C59.6965 17.68 59.6325 17.528 59.6325 17.352V14.808C59.6325 14.632 59.6965 14.48 59.8245 14.352C59.9525 14.224 60.1045 14.16 60.2805 14.16H62.0325C62.4005 14.16 62.7605 14 63.1125 13.68C63.4645 13.36 63.8485 12.816 64.2645 12.048L58.8165 2.04C58.7525 1.928 58.7205 1.824 58.7205 1.728C58.7205 1.584 58.7685 1.464 58.8645 1.368C58.9765 1.256 59.1045 1.2 59.2485 1.2H62.5605C62.8805 1.2 63.1205 1.28 63.2805 1.44C63.4405 1.6 63.5365 1.72 63.5685 1.8L66.5685 7.704L69.6165 1.8C69.6485 1.72 69.7445 1.6 69.9045 1.44C70.0645 1.28 70.3045 1.2 70.6245 1.2H73.9125C74.0565 1.2 74.1765 1.256 74.2725 1.368C74.3845 1.464 74.4405 1.584 74.4405 1.728C74.4405 1.824 74.4085 1.928 74.3445 2.04L68.3445 13.128ZM81.8889 18.24C81.4249 18.24 81.0169 18.192 80.6649 18.096C80.3129 18 80.0089 17.88 79.7529 17.736C79.4969 17.592 79.2809 17.44 79.1049 17.28C78.9289 17.104 78.7849 16.944 78.6729 16.8V21.912C78.6729 22.088 78.6089 22.24 78.4809 22.368C78.3529 22.496 78.2009 22.56 78.0249 22.56H75.0009C74.8249 22.56 74.6729 22.496 74.5449 22.368C74.4169 22.24 74.3529 22.088 74.3529 21.912V6.168C74.3529 5.992 74.4169 5.84 74.5449 5.712C74.6729 5.584 74.8249 5.52 75.0009 5.52H77.9049C78.0809 5.52 78.2329 5.584 78.3609 5.712C78.4889 5.84 78.5529 5.992 78.5529 6.168V6.72C78.6969 6.56 78.8489 6.392 79.0089 6.216C79.1849 6.04 79.3929 5.888 79.6329 5.76C79.8889 5.616 80.1929 5.504 80.5449 5.424C80.9129 5.328 81.3609 5.28 81.8889 5.28C82.6089 5.28 83.2889 5.392 83.9289 5.616C84.5689 5.824 85.1289 6.16 85.6089 6.624C86.0889 7.072 86.4729 7.64 86.7609 8.328C87.0649 9.016 87.2329 9.832 87.2649 10.776C87.2809 11.016 87.2889 11.344 87.2889 11.76C87.2889 12.16 87.2809 12.48 87.2649 12.72C87.2329 13.664 87.0649 14.48 86.7609 15.168C86.4729 15.856 86.0889 16.432 85.6089 16.896C85.1289 17.344 84.5689 17.68 83.9289 17.904C83.2889 18.128 82.6089 18.24 81.8889 18.24ZM82.9689 12.432C83.0169 11.984 83.0169 11.536 82.9689 11.088C82.9209 10.528 82.7369 10.04 82.4169 9.624C82.0969 9.208 81.5609 9 80.8089 9C80.4569 9 80.1529 9.056 79.8969 9.168C79.6409 9.28 79.4249 9.432 79.2489 9.624C79.0889 9.8 78.9609 10 78.8649 10.224C78.7689 10.448 78.7049 10.68 78.6729 10.92C78.6409 11.16 78.6249 11.44 78.6249 11.76C78.6249 12.08 78.6409 12.36 78.6729 12.6C78.7049 12.84 78.7689 13.072 78.8649 13.296C78.9609 13.52 79.0889 13.728 79.2489 13.92C79.4249 14.096 79.6409 14.24 79.8969 14.352C80.1529 14.464 80.4569 14.52 80.8089 14.52C81.5609 14.52 82.0969 14.312 82.4169 13.896C82.7369 13.48 82.9209 12.992 82.9689 12.432ZM99.9559 3.144C100.868 3.272 101.732 3.496 102.548 3.816C103.364 4.12 104.084 4.536 104.708 5.064C105.332 5.592 105.82 6.232 106.172 6.984C106.54 7.72 106.724 8.592 106.724 9.6C106.724 10.608 106.54 11.488 106.172 12.24C105.82 12.976 105.332 13.608 104.708 14.136C104.084 14.664 103.364 15.088 102.548 15.408C101.732 15.712 100.868 15.928 99.9559 16.056V17.832C99.9559 18.008 99.8919 18.16 99.7639 18.288C99.6359 18.416 99.4839 18.48 99.3079 18.48H96.1639C95.9879 18.48 95.8359 18.416 95.7079 18.288C95.5799 18.16 95.5159 18.008 95.5159 17.832V16.056C94.6039 15.928 93.7399 15.712 92.9239 15.408C92.1079 15.088 91.3879 14.664 90.7639 14.136C90.1399 13.608 89.6439 12.976 89.2759 12.24C88.9239 11.488 88.7479 10.608 88.7479 9.6C88.7479 8.592 88.9239 7.72 89.2759 6.984C89.6439 6.232 90.1399 5.592 90.7639 5.064C91.3879 4.536 92.1079 4.12 92.9239 3.816C93.7399 3.496 94.6039 3.272 95.5159 3.144V1.368C95.5159 1.192 95.5799 1.04 95.7079 0.912C95.8359 0.783999 95.9879 0.719999 96.1639 0.719999H99.3079C99.4839 0.719999 99.6359 0.783999 99.7639 0.912C99.8919 1.04 99.9559 1.192 99.9559 1.368V3.144ZM95.5159 6.984C95.0519 7.08 94.6679 7.216 94.3639 7.392C94.0759 7.568 93.8439 7.776 93.6679 8.016C93.4919 8.24 93.3639 8.488 93.2839 8.76C93.2199 9.032 93.1879 9.312 93.1879 9.6C93.1879 9.888 93.2199 10.168 93.2839 10.44C93.3639 10.712 93.4919 10.968 93.6679 11.208C93.8439 11.432 94.0759 11.632 94.3639 11.808C94.6679 11.984 95.0519 12.12 95.5159 12.216V6.984ZM102.284 9.6C102.284 9.312 102.244 9.032 102.164 8.76C102.1 8.488 101.98 8.24 101.804 8.016C101.628 7.776 101.388 7.568 101.084 7.392C100.796 7.216 100.42 7.08 99.9559 6.984V12.216C100.42 12.12 100.796 11.984 101.084 11.808C101.388 11.632 101.628 11.432 101.804 11.208C101.98 10.968 102.1 10.712 102.164 10.44C102.244 10.168 102.284 9.888 102.284 9.6ZM116.743 13.128C116.359 13.848 115.959 14.504 115.543 15.096C115.127 15.688 114.671 16.2 114.175 16.632C113.679 17.064 113.119 17.4 112.495 17.64C111.887 17.88 111.199 18 110.431 18H108.679C108.503 18 108.351 17.936 108.223 17.808C108.095 17.68 108.031 17.528 108.031 17.352V14.808C108.031 14.632 108.095 14.48 108.223 14.352C108.351 14.224 108.503 14.16 108.679 14.16H110.431C110.799 14.16 111.159 14 111.511 13.68C111.863 13.36 112.247 12.816 112.663 12.048L107.215 2.04C107.151 1.928 107.119 1.824 107.119 1.728C107.119 1.584 107.167 1.464 107.263 1.368C107.375 1.256 107.503 1.2 107.647 1.2H110.959C111.279 1.2 111.519 1.28 111.679 1.44C111.839 1.6 111.935 1.72 111.967 1.8L114.967 7.704L118.015 1.8C118.047 1.72 118.143 1.6 118.303 1.44C118.463 1.28 118.703 1.2 119.023 1.2H122.311C122.455 1.2 122.575 1.256 122.671 1.368C122.783 1.464 122.839 1.584 122.839 1.728C122.839 1.824 122.807 1.928 122.743 2.04L116.743 13.128Z" fill="black"/>
</svg>
